<svg width="18" height="18" viewBox="0 0 18 18" fill="none" xmlns="http://www.w3.org/2000/svg">
<path d="M8.75 0C3.91797 0 0 4.01953 0 8.97266C0 12.9375 2.50781 16.2969 5.98438 17.4844C6.03314 17.495 6.08291 17.5002 6.13281 17.5C6.45703 17.5 6.58203 17.2617 6.58203 17.0547C6.58203 16.8398 6.57422 16.2773 6.57031 15.5273C6.28088 15.5952 5.98478 15.6306 5.6875 15.6328C4.00391 15.6328 3.62109 14.3242 3.62109 14.3242C3.22266 13.2891 2.64844 13.0117 2.64844 13.0117C1.88672 12.4766 2.64453 12.4609 2.70312 12.4609H2.70703C3.58594 12.5391 4.04688 13.3906 4.04688 13.3906C4.48438 14.1562 5.07031 14.3711 5.59375 14.3711C5.93986 14.3642 6.28061 14.2843 6.59375 14.1367C6.67188 13.5586 6.89844 13.1641 7.14844 12.9375C5.20703 12.7109 3.16406 11.9414 3.16406 8.50391C3.16406 7.52344 3.50391 6.72266 4.0625 6.09766C3.97266 5.87109 3.67188 4.95703 4.14844 3.72266C4.21236 3.70736 4.27806 3.70079 4.34375 3.70312C4.66016 3.70312 5.375 3.82422 6.55469 4.64453C7.9881 4.24348 9.50409 4.24348 10.9375 4.64453C12.1172 3.82422 12.832 3.70312 13.1484 3.70312C13.2141 3.70079 13.2798 3.70736 13.3438 3.72266C13.8203 4.95703 13.5195 5.87109 13.4297 6.09766C13.9883 6.72656 14.3281 7.52734 14.3281 8.50391C14.3281 11.9492 12.2812 12.707 10.332 12.9297C10.6445 13.207 10.9258 13.7539 10.9258 14.5898C10.9258 15.7891 10.9141 16.7578 10.9141 17.0508C10.9141 17.2617 11.0352 17.5 11.3594 17.5C11.4119 17.5002 11.4642 17.495 11.5156 17.4844C14.9961 16.2969 17.5 12.9336 17.5 8.97266C17.5 4.01953 13.582 0 8.75 0Z" fill="#6F6BFC"/>
</svg>
