<svg width="18" height="18" viewBox="0 0 18 18" fill="none" xmlns="http://www.w3.org/2000/svg">
<path d="M9.125 1C4.63789 1 1 4.63789 1 9.125C1 13.6121 4.63789 17.25 9.125 17.25C13.6121 17.25 17.25 13.6121 17.25 9.125C17.25 4.63789 13.6121 1 9.125 1Z" stroke="#6F6BFC" stroke-miterlimit="10"/>
<path d="M9.12499 1C6.85664 1 4.72382 4.63789 4.72382 9.125C4.72382 13.6121 6.85664 17.25 9.12499 17.25C11.3934 17.25 13.5262 13.6121 13.5262 9.125C13.5262 4.63789 11.3934 1 9.12499 1Z" stroke="#6F6BFC" stroke-miterlimit="10"/>
<path d="M14.5418 14.5418C13.048 13.4812 11.1676 12.8488 9.125 12.8488C7.08242 12.8488 5.20195 13.4812 3.7082 14.5418M3.7082 3.70819C5.20195 4.76874 7.08242 5.40116 9.125 5.40116C11.1676 5.40116 13.048 4.76874 14.5418 3.70819H3.7082Z" stroke="#6F6BFC" stroke-linecap="round" stroke-linejoin="round"/>
<path d="M9.125 1V17.25M17.25 9.125H1" stroke="#6F6BFC" stroke-miterlimit="10"/>
</svg>
