<svg width="18" height="18" viewBox="0 0 18 18" fill="none" xmlns="http://www.w3.org/2000/svg">
<path d="M16.7424 13.7339C16.1221 13.1089 14.6198 12.1968 13.8908 11.8292C12.9416 11.3511 12.8635 11.312 12.1174 11.8663C11.6198 12.2363 11.2889 12.5667 10.7065 12.4425C10.1241 12.3183 8.85843 11.6179 7.75022 10.5132C6.64202 9.40853 5.901 8.10618 5.7764 7.52571C5.65179 6.94525 5.98772 6.61829 6.35413 6.11946C6.87054 5.41634 6.83147 5.29915 6.39007 4.34993C6.04593 3.61165 5.10725 2.12337 4.47991 1.50618C3.80882 0.843293 3.80882 0.960481 3.3764 1.14017C3.02435 1.28829 2.68661 1.46834 2.36741 1.67806C1.74241 2.09329 1.39554 2.43821 1.15296 2.95657C0.91038 3.47493 0.801396 4.69017 2.05413 6.96595C3.30686 9.24173 4.18577 10.4054 6.00491 12.2195C7.82405 14.0335 9.22288 15.0089 11.2678 16.1558C13.7975 17.5726 14.7678 17.2964 15.2877 17.0542C15.8076 16.812 16.1541 16.4683 16.5701 15.8433C16.7804 15.5246 16.9609 15.1873 17.1092 14.8355C17.2893 14.4046 17.4065 14.4046 16.7424 13.7339Z" stroke="#6F6BFC" stroke-miterlimit="10"/>
</svg>
